<?xml version="1.0"?>
<svg version="1.1" xmlns="http://www.w3.org/2000/svg" width="180" height="45" style=""><path fill="#000000" d="M16.19140625,37.265625q0-0.87890625,0.087890625-2.099609375t0.400390625-2.021484375q0.1171875-0.2734375,0.498046875-0.537109375t0.80078125-0.322265625t0.7421875,0.09765625t0.322265625,0.68359375q0,0.91796875-0.0390625,2.32421875l0,0.60546875q0,1.07421875,0.09765625,2.05078125q0.13671875,1.2890625,0.5859375,2.16796875q0.390625,0.80078125,1.23046875,0.80078125l0.15625,0q1.15234375-0.078125,1.69921875-0.95703125t0.7421875-2.08984375q0.17578125-1.11328125,0.17578125-2.34375l0-0.234375q-0.01953125-1.3671875-0.01953125-2.40234375q0-4.12109375-0.2734375-8.26171875t-0.2734375-8.30078125q0-0.68359375-0.05859375-1.484375q-0.01953125-0.29296875-0.01953125-0.5859375q0-0.46875,0.05859375-0.8984375q0.09765625-0.68359375,0.498046875-1.142578125t1.357421875-0.458984375q0.52734375,0,0.966796875,0.126953125t0.791015625,0.517578125q0.44921875,5.078125,0.7421875,10.322265625t0.29296875,10.361328125q0,1.7578125-0.29296875,3.53515625t-1.07421875,3.203125t-2.16796875,2.32421875t-3.53515625,0.8984375q-1.2890625,0-2.1484375-0.458984375t-1.376953125-1.259765625t-0.7421875-1.865234375t-0.224609375-2.294921875z M31.3607421875,35.5859375q0-1.11328125,0.283203125-2.294921875t0.8984375-2.12890625t1.552734375-1.54296875t2.265625-0.595703125q0.99609375,0,2.099609375,0.341796875t2.021484375,0.9765625t1.494140625,1.552734375t0.576171875,2.05078125q0,1.3671875-0.498046875,2.59765625t-1.396484375,2.197265625t-2.099609375,1.5234375t-2.607421875,0.556640625q-1.15234375,0-2.01171875-0.419921875t-1.435546875-1.123046875t-0.859375-1.66015625t-0.283203125-2.03125z M34.2318359375,35.546875q0,0.3515625,0.107421875,1.03515625t0.322265625,1.337890625t0.556640625,1.1328125t0.830078125,0.439453125q1.03515625-0.1171875,1.708984375-0.673828125t1.09375-1.357421875t0.5859375-1.73828125t0.166015625-1.77734375q0-1.07421875-0.419921875-1.796875t-1.376953125-1.171875q0,0.0390625,0.0390625,0.0390625t0.0390625-0.0390625l-0.48828125-0.1171875q-0.1953125-0.078125-0.478515625-0.17578125t-0.556640625-0.4296875q-0.76171875,0.2734375-1.181640625,0.703125t-0.634765625,1.044921875t-0.263671875,1.474609375t-0.048828125,2.0703125z M46.158984375,29.53125q0-1.3671875,0.126953125-3.5546875t0.302734375-4.51171875t0.439453125-4.404296875t0.576171875-3.193359375q0.1171875-0.48828125,0.556640625-0.5859375t0.888671875-0.09765625q0.60546875,0,1.044921875,0.21484375t0.439453125,0.9375q0,3.5546875-0.439453125,7.119140625t-0.478515625,7.119140625q0.60546875-0.91796875,1.5625-1.376953125t2.03125-0.458984375q1.484375,0,2.55859375,0.60546875t1.73828125,1.5625t0.986328125,2.216796875t0.322265625,2.568359375q0,0.72265625-0.146484375,1.806640625t-0.439453125,2.28515625t-0.7421875,2.3828125t-1.064453125,2.119140625t-1.416015625,1.513671875t-1.7578125,0.576171875q-0.1953125,0-0.517578125-0.05859375t-0.64453125-0.17578125t-0.537109375-0.302734375t-0.21484375-0.458984375q0-0.3125,0.380859375-0.439453125t0.615234375-0.126953125q0.87890625-0.390625,1.5625-1.630859375t1.142578125-2.724609375t0.693359375-2.939453125t0.234375-2.373046875q0-0.52734375-0.15625-1.40625t-0.478515625-1.73828125t-0.87890625-1.484375t-1.318359375-0.625q-0.91796875,0-1.46484375,0.947265625t-0.859375,2.20703125t-0.419921875,2.59765625t-0.107421875,2.099609375q0,0.48828125,0.166015625,0.966796875t0.380859375,0.95703125t0.380859375,0.9765625t0.166015625,0.986328125q0,0.234375-0.205078125,0.390625t-0.478515625,0.25390625t-0.576171875,0.126953125t-0.458984375,0.029296875q-1.11328125,0-1.54296875-0.52734375t-0.7421875-1.484375q-0.68359375-2.16796875-0.947265625-4.404296875t-0.263671875-4.482421875z M62.8126953125,30.17578125q0-0.80078125,0.46875-1.376953125t1.142578125-0.9375t1.474609375-0.537109375t1.484375-0.17578125q0.52734375,0,1.40625,0.15625t1.71875,0.46875t1.455078125,0.8203125t0.615234375,1.19140625q0,0.3125-0.234375,0.556640625t-0.48828125,0.244140625q-0.52734375,0-0.95703125-0.341796875t-0.888671875-0.72265625t-1.005859375-0.72265625t-1.23046875-0.341796875t-1.240234375,0.439453125t-0.556640625,1.162109375q0,1.19140625,0.83984375,2.333984375t1.845703125,2.40234375t1.845703125,2.646484375t0.83984375,3.06640625q0,0.72265625-0.302734375,1.220703125t-0.80078125,0.810546875t-1.123046875,0.478515625t-1.2109375,0.166015625q-0.64453125,0-1.50390625-0.302734375t-1.62109375-0.80078125t-1.279296875-1.162109375t-0.517578125-1.38671875q0-0.3515625,0.498046875-0.44921875t0.732421875-0.09765625q0.1171875,0,0.361328125,0.078125t0.478515625,0.17578125t0.419921875,0.21484375t0.146484375,0.25390625q0.1953125,0.234375,0.595703125,0.693359375t0.80078125,0.7421875t0.703125,0.205078125t0.302734375-0.87890625q0-1.5234375-0.8203125-2.802734375t-1.787109375-2.5t-1.787109375-2.421875t-0.8203125-2.568359375z M84.2255859375,36.77734375q0-0.72265625,0.029296875-2.119140625t0.205078125-2.841796875t0.576171875-2.6171875t1.201171875-1.50390625q0.1953125-0.078125,0.634765625-0.13671875t0.87890625-0.0390625t0.78125,0.15625t0.341796875,0.5078125q0,0.078125-0.078125,0.21484375t-0.41015625,0.4296875q-0.60546875,1.6796875-0.7421875,3.33984375t-0.13671875,3.41796875q0,1.03515625,0.068359375,2.0703125t0.224609375,2.08984375q0.3125-0.44921875,0.634765625-1.34765625t0.68359375-1.962890625t0.7421875-2.158203125t0.859375-1.9921875t1.0546875-1.484375t1.298828125-0.5859375q0.80078125,0,1.337890625,1.005859375t0.99609375,2.32421875t0.859375,2.67578125t0.966796875,2.080078125q0.2734375-0.2734375,0.439453125-0.712890625t0.263671875-0.947265625t0.1171875-1.005859375t0.01953125-0.849609375q0-0.87890625-0.263671875-1.904296875t-0.556640625-1.923828125t-0.556640625-1.513671875t-0.263671875-0.712890625q0-0.15625,0.166015625-0.25390625t0.380859375-0.15625t0.439453125-0.078125t0.341796875-0.01953125q0.72265625,0,1.240234375,0.80078125t0.8203125,1.85546875t0.439453125,2.138671875t0.13671875,1.689453125q0,0.76171875-0.1171875,1.62109375t-0.439453125,1.591796875t-0.947265625,1.220703125t-1.58203125,0.48828125q-1.15234375,0-1.89453125-0.64453125t-1.201171875-1.5625t-0.72265625-2.001953125t-0.498046875-1.962890625q-0.44921875,1.03515625-0.8203125,2.6171875t-0.9375,3.10546875t-1.4453125,2.59765625t-2.28515625,1.07421875t-2.001953125-0.693359375t-0.947265625-1.904296875l0.0390625,0.0390625q-0.234375-0.87890625-0.302734375-1.7578125t-0.068359375-1.7578125z M104.004296875,35.5859375q0-1.11328125,0.283203125-2.294921875t0.8984375-2.12890625t1.552734375-1.54296875t2.265625-0.595703125q0.99609375,0,2.099609375,0.341796875t2.021484375,0.9765625t1.494140625,1.552734375t0.576171875,2.05078125q0,1.3671875-0.498046875,2.59765625t-1.396484375,2.197265625t-2.099609375,1.5234375t-2.607421875,0.556640625q-1.15234375,0-2.01171875-0.419921875t-1.435546875-1.123046875t-0.859375-1.66015625t-0.283203125-2.03125z M106.875390625,35.546875q0,0.3515625,0.107421875,1.03515625t0.322265625,1.337890625t0.556640625,1.1328125t0.830078125,0.439453125q1.03515625-0.1171875,1.708984375-0.673828125t1.09375-1.357421875t0.5859375-1.73828125t0.166015625-1.77734375q0-1.07421875-0.419921875-1.796875t-1.376953125-1.171875q0,0.0390625,0.0390625,0.0390625t0.0390625-0.0390625l-0.48828125-0.1171875q-0.1953125-0.078125-0.478515625-0.17578125t-0.556640625-0.4296875q-0.76171875,0.2734375-1.181640625,0.703125t-0.634765625,1.044921875t-0.263671875,1.474609375t-0.048828125,2.0703125z M118.8025390625,29.74609375q0-0.80078125,0.283203125-1.34765625t1.201171875-0.546875q0.3515625,0,0.87890625,0.107421875t0.60546875,0.537109375q0.1953125,1.15234375,0.21484375,2.5t0.13671875,2.5390625q0.44921875-0.87890625,1.15234375-1.89453125t1.6015625-1.875t1.953125-1.42578125t2.1484375-0.56640625q0.078125,0,0.29296875,0.05859375t0.400390625,0.166015625t0.224609375,0.244140625t-0.21484375,0.25390625q-0.078125,0.234375-0.33203125,0.283203125t-0.44921875,0.048828125q-0.1171875,0-0.37109375-0.09765625q-1.4453125,0.76171875-2.4609375,2.0703125t-1.66015625,2.900390625t-0.9375,3.359375t-0.29296875,3.447265625q0,0.83984375-0.380859375,1.015625t-1.220703125,0.17578125q-0.44921875,0-0.947265625-0.09765625t-0.693359375-0.625q-0.3515625-1.11328125-0.576171875-2.55859375t-0.341796875-2.978515625t-0.166015625-3.017578125t-0.048828125-2.67578125z M132.6828125,42.1484375q0-0.56640625,0.048828125-1.19140625t0.087890625-1.171875l0.1171875-2.9296875q0.1953125-3.515625,0.478515625-6.9140625t0.478515625-6.875q0.1171875-1.9140625,0.17578125-3.759765625t0.17578125-3.759765625q-0.078125-0.15625-0.078125-0.21484375q0-0.2734375,0.205078125-0.4296875t0.478515625-0.263671875t0.576171875-0.146484375t0.458984375-0.0390625l0.44921875,0q0.60546875,0.078125,0.87890625,0.380859375t0.3515625,0.72265625t0.0390625,0.8984375t-0.0390625,0.888671875q0,2.83203125-0.13671875,5.771484375t-0.3125,5.8984375t-0.322265625,5.91796875t-0.146484375,5.849609375l0,1.3671875q0,0.91796875-0.517578125,1.2109375t-1.435546875,0.29296875q-0.80078125,0-1.40625-0.3515625t-0.60546875-1.15234375z M141.6412109375,34.98046875q0-1.5234375,0.322265625-2.763671875t1.025390625-2.099609375t1.845703125-1.337890625t2.783203125-0.478515625q0.91796875,0,1.875,0.244140625t1.640625,0.908203125q0-0.390625,0.078125-1.611328125t0.1953125-2.841796875t0.244140625-3.3984375t0.224609375-3.30078125t0.17578125-2.55859375t0.1171875-1.171875q0.1953125-0.56640625,0.72265625-0.673828125t0.99609375-0.107421875q1.23046875,0,1.513671875,0.390625t0.283203125,1.5625q0,4.27734375-0.380859375,8.515625t-0.380859375,8.515625q0,2.75390625,0.107421875,5.537109375t0.771484375,5.478515625l0.21484375,0.1953125l0.1171875,0.3515625l-0.29296875,0.44921875q-0.7421875,0.46875-1.71875,0.46875l-0.078125,0q-0.99609375,0-1.8359375-0.46875q-0.3125-0.1953125-0.517578125-1.162109375t-0.322265625-2.12890625t-0.17578125-2.236328125t-0.09765625-1.5234375q-0.68359375,1.5625-1.865234375,2.685546875t-2.978515625,1.123046875q-1.40625,0-2.3046875-0.60546875t-1.396484375-1.54296875t-0.703125-2.099609375t-0.205078125-2.314453125z M144.0044921875,35.09765625q0,0.44921875,0.107421875,1.328125t0.341796875,1.7578125t0.654296875,1.5625t1.103515625,0.68359375q0.91796875-0.44921875,1.66015625-1.494140625t1.279296875-2.3046875t0.83984375-2.51953125t0.302734375-2.177734375q0-1.15234375-0.83984375-1.9140625t-2.01171875-0.76171875q-0.3515625,0-0.712890625,0.13671875t-0.673828125,0.3125q-0.72265625,0.68359375-1.123046875,1.240234375t-0.60546875,1.15234375t-0.263671875,1.318359375t-0.05859375,1.6796875z"/><path fill="#" d=""/></svg>
